<?xml version="1.0" encoding="utf-8"?>
<!-- Generator: Adobe Illustrator 16.0.0, SVG Export Plug-In . SVG Version: 6.00 Build 0)  -->
<!DOCTYPE svg PUBLIC "-//W3C//DTD SVG 1.1//EN" "http://www.w3.org/Graphics/SVG/1.1/DTD/svg11.dtd">
<svg version="1.1" id="Capa_1" xmlns="http://www.w3.org/2000/svg" xmlns:xlink="http://www.w3.org/1999/xlink" x="0px" y="0px"
	 width="300px" height="300px" viewBox="330 130 300 300" enable-background="new 330 130 300 300" xml:space="preserve">
<g>
	<path fill="#FCFCFC" d="M480,227.191c-55.76,0-98.997,61.404-98.997,114.227c0,61.434,56.504,68.536,98.997,68.536
		c42.493,0,98.997-7.103,98.997-68.536C578.997,288.595,535.76,227.191,480,227.191z"/>
</g>
<g>
	<g>
		<path fill="#FFFFFF" d="M523.43,156.182c-28.11-8.18-58.749-8.18-86.86,0c-4.717,1.365-6.969,6.842-4.433,11.17l11.518,20.62
			c20.029-7.969,49.735-9.159,72.687,0.003l11.52-20.624C530.398,163.023,528.146,157.547,523.43,156.182z"/>
	</g>
</g>
<g>
	<g>
		<path fill="#FFFFFF" d="M515.357,204.569c-14.248-10.038-56.044-10.457-70.803,0.047c-6.328,4.466-9.696,11.484-9.631,18.815
			c14.623-7.747,31.769-11.47,45.077-11.47c16.209,0,31.393,4.22,45.078,11.47C525.141,216.368,522.002,209.255,515.357,204.569z"/>
	</g>
</g>
<text transform="matrix(1 0 0 1 429.6436 339.6406)" font-family="'Myriad-Bold'" font-size="55.6945">GST</text>
</svg>
